# MagicaVoxel @ Ephtracy

# group
o 

# material
mtllib wall-2.mtl
usemtl palette

# normals
vn -1 0 0
vn 1 0 0
vn 0 0 1
vn 0 0 -1
vn 0 -1 0
vn 0 1 0

# texcoords
vt 0.720703 0.5
vt 0.724609 0.5
vt 0.728516 0.5
vt 0.732422 0.5

# verts
v 9.8 0.4 1.6
v 9.8 0.4 -1.6
v 9.8 3.5 1.6
v 9.8 3.5 0.7
v 9.8 3.5 0.6
v 9.8 3.5 -1.6
v 9.8 3.6 1.6
v 9.8 3.6 0.7
v 9.8 3.6 0.6
v 9.8 3.6 -1.6
v 10.3 1 1.5
v 10.3 1 1.4
v 10.3 1.1 1.5
v 10.3 1.1 1.4
v 10.6 3.5 0.6
v 10.6 3.5 0.5
v 10.6 3.6 0.6
v 10.6 3.6 0.5
v 10.9 3.5 0.5
v 10.9 3.5 -0.5
v 10.9 3.5 -0.7
v 10.9 3.5 -1.5
v 10.9 3.6 0.5
v 10.9 3.6 -0.5
v 10.9 3.6 -0.7
v 10.9 3.6 -1.5
v 11.3 3.4 1.5
v 11.3 3.4 1.4
v 11.3 3.5 1.5
v 11.3 3.5 1.4
v 11.8 3.5 1.5
v 11.8 3.5 0.7
v 11.8 3.5 0.6
v 11.8 3.5 -0.5
v 11.8 3.6 1.5
v 11.8 3.6 0.7
v 11.8 3.6 0.6
v 11.8 3.6 -0.5
v 11.9 3.5 -0.5
v 11.9 3.5 -0.6
v 11.9 3.6 -0.5
v 11.9 3.6 -0.6
v 12.1 1 1.5
v 12.1 1 1.4
v 12.1 1.1 1.5
v 12.1 1.1 1.4
v 12.9 3.5 -0.5
v 12.9 3.5 -0.6
v 12.9 3.6 -0.5
v 12.9 3.6 -0.6
v 9.9 3.5 0.6
v 9.9 3.5 0.5
v 9.9 3.6 0.6
v 9.9 3.6 0.5
v 10.2 1 1.5
v 10.2 1 1.4
v 10.2 1.1 1.5
v 10.2 1.1 1.4
v 10.7 3.5 0.6
v 10.7 3.5 0.5
v 10.7 3.6 0.6
v 10.7 3.6 0.5
v 10.8 3.5 0.5
v 10.8 3.5 -0.6
v 10.8 3.5 -0.7
v 10.8 3.5 -1.5
v 10.8 3.6 0.5
v 10.8 3.6 -0.6
v 10.8 3.6 -0.7
v 10.8 3.6 -1.5
v 11.2 3.4 1.5
v 11.2 3.4 1.4
v 11.2 3.5 1.5
v 11.2 3.5 1.4
v 11.7 3.5 1.5
v 11.7 3.5 0.7
v 11.7 3.5 0.5
v 11.7 3.5 -0.5
v 11.7 3.6 1.5
v 11.7 3.6 0.7
v 11.7 3.6 0.5
v 11.7 3.6 -0.5
v 12 1 1.5
v 12 1 1.4
v 12 1.1 1.5
v 12 1.1 1.4
v 12 3.5 -0.5
v 12 3.5 -0.6
v 12 3.6 -0.5
v 12 3.6 -0.6
v 13 0.4 1.6
v 13 0.4 -1.6
v 13 3.5 1.6
v 13 3.5 -1.6
v 13 3.6 1.6
v 13 3.6 -1.6
v 9.8 0.4 1.6
v 9.8 3.5 1.6
v 9.8 3.6 1.6
v 13 0.4 1.6
v 13 3.5 1.6
v 13 3.6 1.6
v 10.2 1 1.4
v 10.2 1.1 1.4
v 10.3 1 1.4
v 10.3 1.1 1.4
v 11.2 3.4 1.4
v 11.2 3.5 1.4
v 11.3 3.4 1.4
v 11.3 3.5 1.4
v 12 1 1.4
v 12 1.1 1.4
v 12.1 1 1.4
v 12.1 1.1 1.4
v 11.7 3.5 0.7
v 11.7 3.6 0.7
v 11.8 3.5 0.7
v 11.8 3.6 0.7
v 9.9 3.5 0.5
v 9.9 3.6 0.5
v 10.6 3.5 0.5
v 10.6 3.6 0.5
v 10.7 3.5 0.5
v 10.7 3.6 0.5
v 10.8 3.5 0.5
v 10.8 3.6 0.5
v 10.9 3.5 0.5
v 10.9 3.6 0.5
v 11.7 3.5 0.5
v 11.7 3.6 0.5
v 10.8 3.5 -0.6
v 10.8 3.6 -0.6
v 11.9 3.5 -0.6
v 11.9 3.6 -0.6
v 12 3.5 -0.6
v 12 3.6 -0.6
v 12.9 3.5 -0.6
v 12.9 3.6 -0.6
v 10.8 3.5 -1.5
v 10.8 3.6 -1.5
v 10.9 3.5 -1.5
v 10.9 3.6 -1.5
v 10.2 1 1.5
v 10.2 1.1 1.5
v 10.3 1 1.5
v 10.3 1.1 1.5
v 11.2 3.4 1.5
v 11.2 3.5 1.5
v 11.3 3.4 1.5
v 11.3 3.5 1.5
v 11.7 3.5 1.5
v 11.7 3.6 1.5
v 11.8 3.5 1.5
v 11.8 3.6 1.5
v 12 1 1.5
v 12 1.1 1.5
v 12.1 1 1.5
v 12.1 1.1 1.5
v 9.9 3.5 0.6
v 9.9 3.6 0.6
v 10.6 3.5 0.6
v 10.6 3.6 0.6
v 10.7 3.5 0.6
v 10.7 3.6 0.6
v 11.8 3.5 0.6
v 11.8 3.6 0.6
v 10.9 3.5 -0.5
v 10.9 3.6 -0.5
v 11.7 3.5 -0.5
v 11.7 3.6 -0.5
v 11.8 3.5 -0.5
v 11.8 3.6 -0.5
v 11.9 3.5 -0.5
v 11.9 3.6 -0.5
v 12 3.5 -0.5
v 12 3.6 -0.5
v 12.9 3.5 -0.5
v 12.9 3.6 -0.5
v 10.8 3.5 -0.7
v 10.8 3.6 -0.7
v 10.9 3.5 -0.7
v 10.9 3.6 -0.7
v 9.8 0.4 -1.6
v 9.8 3.5 -1.6
v 9.8 3.6 -1.6
v 10.6 3.5 -1.6
v 10.6 3.6 -1.6
v 10.7 3.5 -1.6
v 10.7 3.6 -1.6
v 13 0.4 -1.6
v 13 3.5 -1.6
v 13 3.6 -1.6
v 9.8 0.4 1.6
v 13 0.4 1.6
v 9.8 0.4 -1.6
v 13 0.4 -1.6
v 10.2 1.1 1.5
v 10.3 1.1 1.5
v 12 1.1 1.5
v 12.1 1.1 1.5
v 10.2 1.1 1.4
v 10.3 1.1 1.4
v 12 1.1 1.4
v 12.1 1.1 1.4
v 11.2 3.5 1.5
v 11.3 3.5 1.5
v 11.2 3.5 1.4
v 11.3 3.5 1.4
v 10.2 1 1.5
v 10.3 1 1.5
v 12 1 1.5
v 12.1 1 1.5
v 10.2 1 1.4
v 10.3 1 1.4
v 12 1 1.4
v 12.1 1 1.4
v 11.2 3.4 1.5
v 11.3 3.4 1.5
v 11.2 3.4 1.4
v 11.3 3.4 1.4
v 11.7 3.5 1.5
v 11.8 3.5 1.5
v 11.7 3.5 0.7
v 11.8 3.5 0.7
v 9.9 3.5 0.6
v 10.6 3.5 0.6
v 10.7 3.5 0.6
v 11.8 3.5 0.6
v 9.9 3.5 0.5
v 10.6 3.5 0.5
v 10.7 3.5 0.5
v 10.8 3.5 0.5
v 10.9 3.5 0.5
v 11.7 3.5 0.5
v 10.9 3.5 -0.5
v 11.7 3.5 -0.5
v 11.8 3.5 -0.5
v 11.9 3.5 -0.5
v 12 3.5 -0.5
v 12.9 3.5 -0.5
v 10.8 3.5 -0.6
v 11.9 3.5 -0.6
v 12 3.5 -0.6
v 12.9 3.5 -0.6
v 10.8 3.5 -0.7
v 10.9 3.5 -0.7
v 10.8 3.5 -1.5
v 10.9 3.5 -1.5
v 9.8 3.6 1.6
v 13 3.6 1.6
v 9.9 3.6 1.5
v 11.7 3.6 1.5
v 11.8 3.6 1.5
v 11.9 3.6 1.5
v 12 3.6 1.5
v 12.9 3.6 1.5
v 10.1 3.6 1.3
v 10.2 3.6 1.3
v 10.1 3.6 1.2
v 10.2 3.6 1.2
v 12.3 3.6 1.1
v 12.4 3.6 1.1
v 11 3.6 1
v 11.1 3.6 1
v 12.3 3.6 1
v 12.4 3.6 1
v 11 3.6 0.9
v 11.1 3.6 0.9
v 9.8 3.6 0.7
v 9.9 3.6 0.7
v 11.7 3.6 0.7
v 11.8 3.6 0.7
v 11.9 3.6 0.7
v 9.8 3.6 0.6
v 9.9 3.6 0.6
v 10.6 3.6 0.6
v 10.7 3.6 0.6
v 11.8 3.6 0.6
v 11.9 3.6 0.6
v 9.9 3.6 0.5
v 10.6 3.6 0.5
v 10.7 3.6 0.5
v 10.8 3.6 0.5
v 10.9 3.6 0.5
v 11.7 3.6 0.5
v 10.1 3.6 -0.1
v 10.2 3.6 -0.1
v 11.3 3.6 -0.1
v 11.4 3.6 -0.1
v 10.1 3.6 -0.2
v 10.2 3.6 -0.2
v 11.3 3.6 -0.2
v 11.4 3.6 -0.2
v 12.2 3.6 -0.2
v 12.3 3.6 -0.2
v 12.2 3.6 -0.3
v 12.3 3.6 -0.3
v 10.9 3.6 -0.5
v 11.7 3.6 -0.5
v 11.8 3.6 -0.5
v 11.9 3.6 -0.5
v 12 3.6 -0.5
v 12.9 3.6 -0.5
v 10.7 3.6 -0.6
v 10.8 3.6 -0.6
v 11.9 3.6 -0.6
v 12 3.6 -0.6
v 12.9 3.6 -0.6
v 10.7 3.6 -0.7
v 10.8 3.6 -0.7
v 10.9 3.6 -0.7
v 12.9 3.6 -0.7
v 10.2 3.6 -1.1
v 10.3 3.6 -1.1
v 12.6 3.6 -1.1
v 12.7 3.6 -1.1
v 10.2 3.6 -1.2
v 10.3 3.6 -1.2
v 12.6 3.6 -1.2
v 12.7 3.6 -1.2
v 12.3 3.6 -1.3
v 12.4 3.6 -1.3
v 12.3 3.6 -1.4
v 12.4 3.6 -1.4
v 9.9 3.6 -1.5
v 10.6 3.6 -1.5
v 10.7 3.6 -1.5
v 10.8 3.6 -1.5
v 10.9 3.6 -1.5
v 12.9 3.6 -1.5
v 9.8 3.6 -1.6
v 10.6 3.6 -1.6
v 10.7 3.6 -1.6
v 13 3.6 -1.6

# faces
f 3/1/1 2/1/1 1/1/1
f 4/1/1 2/1/1 3/1/1
f 5/1/1 2/1/1 4/1/1
f 6/1/1 2/1/1 5/1/1
f 7/2/1 4/2/1 3/2/1
f 8/3/1 5/3/1 4/3/1
f 8/2/1 4/2/1 7/2/1
f 9/2/1 6/2/1 5/2/1
f 9/3/1 5/3/1 8/3/1
f 10/2/1 6/2/1 9/2/1
f 13/1/1 12/1/1 11/1/1
f 14/1/1 12/1/1 13/1/1
f 17/3/1 16/3/1 15/3/1
f 18/3/1 16/3/1 17/3/1
f 23/1/1 20/1/1 19/1/1
f 24/1/1 20/1/1 23/1/1
f 25/1/1 22/1/1 21/1/1
f 26/1/1 22/1/1 25/1/1
f 29/1/1 28/1/1 27/1/1
f 30/1/1 28/1/1 29/1/1
f 35/1/1 32/1/1 31/1/1
f 36/1/1 32/1/1 35/1/1
f 37/1/1 34/1/1 33/1/1
f 38/1/1 34/1/1 37/1/1
f 41/3/1 40/3/1 39/3/1
f 42/3/1 40/3/1 41/3/1
f 45/1/1 44/1/1 43/1/1
f 46/1/1 44/1/1 45/1/1
f 49/2/1 48/2/1 47/2/1
f 50/2/1 48/2/1 49/2/1
f 51/2/2 52/2/2 53/2/2
f 53/2/2 52/2/2 54/2/2
f 55/1/2 56/1/2 57/1/2
f 57/1/2 56/1/2 58/1/2
f 59/3/2 60/3/2 61/3/2
f 61/3/2 60/3/2 62/3/2
f 63/1/2 64/1/2 67/1/2
f 67/1/2 64/1/2 68/1/2
f 65/1/2 66/1/2 69/1/2
f 69/1/2 66/1/2 70/1/2
f 71/1/2 72/1/2 73/1/2
f 73/1/2 72/1/2 74/1/2
f 75/1/2 76/1/2 79/1/2
f 79/1/2 76/1/2 80/1/2
f 77/1/2 78/1/2 81/1/2
f 81/1/2 78/1/2 82/1/2
f 83/1/2 84/1/2 85/1/2
f 85/1/2 84/1/2 86/1/2
f 87/3/2 88/3/2 89/3/2
f 89/3/2 88/3/2 90/3/2
f 91/1/2 92/1/2 93/1/2
f 93/1/2 92/1/2 94/1/2
f 93/2/2 94/2/2 95/2/2
f 95/2/2 94/2/2 96/2/2
f 100/1/3 98/1/3 97/1/3
f 101/2/3 99/2/3 98/2/3
f 101/1/3 98/1/3 100/1/3
f 102/2/3 99/2/3 101/2/3
f 105/1/3 104/1/3 103/1/3
f 106/1/3 104/1/3 105/1/3
f 109/1/3 108/1/3 107/1/3
f 110/1/3 108/1/3 109/1/3
f 113/1/3 112/1/3 111/1/3
f 114/1/3 112/1/3 113/1/3
f 117/3/3 116/3/3 115/3/3
f 118/3/3 116/3/3 117/3/3
f 121/1/3 120/1/3 119/1/3
f 122/1/3 120/1/3 121/1/3
f 125/1/3 124/1/3 123/1/3
f 126/1/3 124/1/3 125/1/3
f 129/1/3 128/1/3 127/1/3
f 130/1/3 128/1/3 129/1/3
f 133/3/3 132/3/3 131/3/3
f 134/3/3 132/3/3 133/3/3
f 137/3/3 136/3/3 135/3/3
f 138/3/3 136/3/3 137/3/3
f 141/2/3 140/2/3 139/2/3
f 142/2/3 140/2/3 141/2/3
f 143/1/4 144/1/4 145/1/4
f 145/1/4 144/1/4 146/1/4
f 147/1/4 148/1/4 149/1/4
f 149/1/4 148/1/4 150/1/4
f 151/2/4 152/2/4 153/2/4
f 153/2/4 152/2/4 154/2/4
f 155/1/4 156/1/4 157/1/4
f 157/1/4 156/1/4 158/1/4
f 159/3/4 160/3/4 161/3/4
f 161/3/4 160/3/4 162/3/4
f 163/3/4 164/3/4 165/3/4
f 165/3/4 164/3/4 166/3/4
f 167/1/4 168/1/4 169/1/4
f 169/1/4 168/1/4 170/1/4
f 171/1/4 172/1/4 173/1/4
f 173/1/4 172/1/4 174/1/4
f 175/1/4 176/1/4 177/1/4
f 177/1/4 176/1/4 178/1/4
f 179/3/4 180/3/4 181/3/4
f 181/3/4 180/3/4 182/3/4
f 183/1/4 184/1/4 186/1/4
f 184/2/4 185/2/4 186/2/4
f 186/2/4 185/2/4 187/2/4
f 183/1/4 186/1/4 188/1/4
f 186/3/4 187/3/4 188/3/4
f 188/3/4 187/3/4 189/3/4
f 183/1/4 188/1/4 190/1/4
f 188/2/4 189/2/4 191/2/4
f 190/1/4 188/1/4 191/1/4
f 191/2/4 189/2/4 192/2/4
f 195/1/5 194/1/5 193/1/5
f 196/1/5 194/1/5 195/1/5
f 201/1/5 198/1/5 197/1/5
f 202/1/5 198/1/5 201/1/5
f 203/1/5 200/1/5 199/1/5
f 204/1/5 200/1/5 203/1/5
f 207/1/5 206/1/5 205/1/5
f 208/1/5 206/1/5 207/1/5
f 209/1/6 210/1/6 213/1/6
f 213/1/6 210/1/6 214/1/6
f 211/1/6 212/1/6 215/1/6
f 215/1/6 212/1/6 216/1/6
f 217/1/6 218/1/6 219/1/6
f 219/1/6 218/1/6 220/1/6
f 221/2/6 222/2/6 223/2/6
f 223/2/6 222/2/6 224/2/6
f 225/2/6 226/2/6 229/2/6
f 229/2/6 226/2/6 230/2/6
f 227/2/6 228/2/6 231/2/6
f 231/2/6 228/2/6 232/2/6
f 232/2/6 228/2/6 233/2/6
f 233/2/6 228/2/6 234/2/6
f 232/2/6 233/2/6 235/2/6
f 234/2/6 228/2/6 236/2/6
f 236/2/6 228/2/6 237/2/6
f 236/2/6 237/2/6 241/2/6
f 232/2/6 235/2/6 241/2/6
f 237/2/6 238/2/6 241/2/6
f 235/2/6 236/2/6 241/2/6
f 241/2/6 238/2/6 242/2/6
f 239/2/6 240/2/6 243/2/6
f 243/2/6 240/2/6 244/2/6
f 245/2/6 246/2/6 247/2/6
f 247/2/6 246/2/6 248/2/6
f 249/2/6 250/2/6 251/2/6
f 251/2/6 250/2/6 252/2/6
f 252/2/6 250/2/6 253/2/6
f 253/2/6 250/2/6 254/2/6
f 254/2/6 250/2/6 255/2/6
f 255/2/6 250/2/6 256/2/6
f 251/1/6 252/1/6 257/1/6
f 257/1/6 252/1/6 258/1/6
f 251/1/6 257/1/6 259/1/6
f 257/4/6 258/4/6 259/4/6
f 258/1/6 252/1/6 260/1/6
f 259/4/6 258/4/6 260/4/6
f 255/1/6 256/1/6 261/1/6
f 261/1/6 256/1/6 262/1/6
f 260/1/6 252/1/6 263/1/6
f 259/1/6 260/1/6 263/1/6
f 263/1/6 252/1/6 264/1/6
f 261/4/6 262/4/6 265/4/6
f 255/1/6 261/1/6 265/1/6
f 262/1/6 256/1/6 266/1/6
f 265/4/6 262/4/6 266/4/6
f 263/4/6 264/4/6 267/4/6
f 259/1/6 263/1/6 267/1/6
f 264/1/6 252/1/6 268/1/6
f 267/4/6 264/4/6 268/4/6
f 249/2/6 251/2/6 269/2/6
f 251/1/6 259/1/6 270/1/6
f 269/2/6 251/2/6 270/2/6
f 259/1/6 267/1/6 270/1/6
f 267/1/6 268/1/6 270/1/6
f 268/1/6 252/1/6 271/1/6
f 270/1/6 268/1/6 271/1/6
f 253/1/6 254/1/6 272/1/6
f 254/3/6 255/3/6 273/3/6
f 272/1/6 254/1/6 273/1/6
f 269/3/6 270/3/6 274/3/6
f 270/3/6 271/3/6 274/3/6
f 272/3/6 273/3/6 274/3/6
f 271/3/6 272/3/6 274/3/6
f 274/3/6 273/3/6 275/3/6
f 275/3/6 273/3/6 276/3/6
f 276/3/6 273/3/6 277/3/6
f 277/3/6 273/3/6 278/3/6
f 273/3/6 255/3/6 279/3/6
f 278/3/6 273/3/6 279/3/6
f 274/2/6 275/2/6 280/2/6
f 276/3/6 277/3/6 281/3/6
f 281/3/6 277/3/6 282/3/6
f 280/1/6 281/1/6 286/1/6
f 286/1/6 281/1/6 287/1/6
f 284/1/6 285/1/6 288/1/6
f 288/1/6 285/1/6 289/1/6
f 280/1/6 286/1/6 290/1/6
f 286/4/6 287/4/6 290/4/6
f 287/1/6 281/1/6 291/1/6
f 290/4/6 287/4/6 291/4/6
f 288/4/6 289/4/6 292/4/6
f 284/1/6 288/1/6 292/1/6
f 289/1/6 285/1/6 293/1/6
f 292/4/6 289/4/6 293/4/6
f 255/1/6 265/1/6 294/1/6
f 265/1/6 266/1/6 294/1/6
f 294/1/6 266/1/6 295/1/6
f 255/1/6 294/1/6 296/1/6
f 294/4/6 295/4/6 296/4/6
f 295/1/6 266/1/6 297/1/6
f 296/4/6 295/4/6 297/4/6
f 292/1/6 293/1/6 298/1/6
f 284/1/6 292/1/6 298/1/6
f 293/1/6 285/1/6 299/1/6
f 298/1/6 293/1/6 299/1/6
f 278/1/6 279/1/6 300/1/6
f 279/3/6 255/3/6 301/3/6
f 300/1/6 279/1/6 301/1/6
f 296/1/6 297/1/6 302/1/6
f 301/3/6 255/3/6 302/3/6
f 255/1/6 296/1/6 302/1/6
f 256/2/6 250/2/6 303/2/6
f 302/1/6 297/1/6 303/1/6
f 266/1/6 256/1/6 303/1/6
f 297/1/6 266/1/6 303/1/6
f 281/3/6 282/3/6 304/3/6
f 282/1/6 283/1/6 304/1/6
f 304/1/6 283/1/6 305/1/6
f 301/3/6 302/3/6 306/3/6
f 306/3/6 302/3/6 307/3/6
f 303/2/6 250/2/6 308/2/6
f 304/3/6 305/3/6 309/3/6
f 307/3/6 308/3/6 309/3/6
f 306/3/6 307/3/6 309/3/6
f 281/3/6 304/3/6 309/3/6
f 305/3/6 306/3/6 309/3/6
f 309/3/6 308/3/6 310/3/6
f 310/3/6 308/3/6 311/3/6
f 308/2/6 250/2/6 312/2/6
f 311/3/6 308/3/6 312/3/6
f 290/1/6 291/1/6 313/1/6
f 291/1/6 281/1/6 313/1/6
f 313/1/6 281/1/6 314/1/6
f 311/1/6 312/1/6 315/1/6
f 315/1/6 312/1/6 316/1/6
f 290/1/6 313/1/6 317/1/6
f 313/4/6 314/4/6 317/4/6
f 314/1/6 281/1/6 318/1/6
f 317/4/6 314/4/6 318/4/6
f 315/4/6 316/4/6 319/4/6
f 311/1/6 315/1/6 319/1/6
f 316/1/6 312/1/6 320/1/6
f 319/4/6 316/4/6 320/4/6
f 311/1/6 319/1/6 321/1/6
f 319/1/6 320/1/6 321/1/6
f 321/1/6 320/1/6 322/1/6
f 311/1/6 321/1/6 323/1/6
f 321/4/6 322/4/6 323/4/6
f 322/1/6 320/1/6 324/1/6
f 323/4/6 322/4/6 324/4/6
f 290/1/6 317/1/6 325/1/6
f 274/2/6 280/2/6 325/2/6
f 280/1/6 290/1/6 325/1/6
f 317/1/6 318/1/6 325/1/6
f 281/3/6 309/3/6 326/3/6
f 325/1/6 318/1/6 326/1/6
f 318/1/6 281/1/6 326/1/6
f 309/1/6 310/1/6 327/1/6
f 326/3/6 309/3/6 327/3/6
f 327/1/6 310/1/6 328/1/6
f 323/1/6 324/1/6 329/1/6
f 311/1/6 323/1/6 329/1/6
f 312/2/6 250/2/6 330/2/6
f 324/1/6 320/1/6 330/1/6
f 329/1/6 324/1/6 330/1/6
f 320/1/6 312/1/6 330/1/6
f 325/2/6 326/2/6 331/2/6
f 274/2/6 325/2/6 331/2/6
f 326/3/6 327/3/6 332/3/6
f 331/2/6 326/2/6 332/2/6
f 328/2/6 329/2/6 333/2/6
f 332/3/6 327/3/6 333/3/6
f 327/2/6 328/2/6 333/2/6
f 329/2/6 330/2/6 333/2/6
f 330/2/6 250/2/6 334/2/6
f 333/2/6 330/2/6 334/2/6
