# MagicaVoxel @ Ephtracy

# group
o 

# material
mtllib wall-0.mtl
usemtl palette

# normals
vn -1 0 0
vn 1 0 0
vn 0 0 1
vn 0 0 -1
vn 0 -1 0
vn 0 1 0

# texcoords
vt 0.720703 0.5
vt 0.724609 0.5
vt 0.728516 0.5
vt 0.732422 0.5

# verts
v -6.8 0.4 1.6
v -6.8 0.4 -1.6
v -6.8 3.5 1.6
v -6.8 3.5 -1.6
v -6.8 3.6 1.6
v -6.8 3.6 -1.6
v -6.3 1 1.5
v -6.3 1 1.4
v -6.3 1.1 1.5
v -6.3 1.1 1.4
v -5.3 3.4 1.5
v -5.3 3.4 1.4
v -5.3 3.5 1.5
v -5.3 3.5 1.4
v -4.5 1 1.5
v -4.5 1 1.4
v -4.5 1.1 1.5
v -4.5 1.1 1.4
v -6.4 1 1.5
v -6.4 1 1.4
v -6.4 1.1 1.5
v -6.4 1.1 1.4
v -5.4 3.4 1.5
v -5.4 3.4 1.4
v -5.4 3.5 1.5
v -5.4 3.5 1.4
v -4.6 1 1.5
v -4.6 1 1.4
v -4.6 1.1 1.5
v -4.6 1.1 1.4
v -3.6 0.4 1.6
v -3.6 0.4 -1.6
v -3.6 3.5 1.6
v -3.6 3.5 -1.6
v -3.6 3.6 1.6
v -3.6 3.6 -1.6
v -6.8 0.4 1.6
v -6.8 3.5 1.6
v -6.8 3.6 1.6
v -3.6 0.4 1.6
v -3.6 3.5 1.6
v -3.6 3.6 1.6
v -6.4 1 1.4
v -6.4 1.1 1.4
v -6.3 1 1.4
v -6.3 1.1 1.4
v -5.4 3.4 1.4
v -5.4 3.5 1.4
v -5.3 3.4 1.4
v -5.3 3.5 1.4
v -4.6 1 1.4
v -4.6 1.1 1.4
v -4.5 1 1.4
v -4.5 1.1 1.4
v -6.4 1 1.5
v -6.4 1.1 1.5
v -6.3 1 1.5
v -6.3 1.1 1.5
v -5.4 3.4 1.5
v -5.4 3.5 1.5
v -5.3 3.4 1.5
v -5.3 3.5 1.5
v -4.6 1 1.5
v -4.6 1.1 1.5
v -4.5 1 1.5
v -4.5 1.1 1.5
v -6.8 0.4 -1.6
v -6.8 3.5 -1.6
v -6.8 3.6 -1.6
v -3.6 0.4 -1.6
v -3.6 3.5 -1.6
v -3.6 3.6 -1.6
v -6.8 0.4 1.6
v -3.6 0.4 1.6
v -6.8 0.4 -1.6
v -3.6 0.4 -1.6
v -6.4 1.1 1.5
v -6.3 1.1 1.5
v -4.6 1.1 1.5
v -4.5 1.1 1.5
v -6.4 1.1 1.4
v -6.3 1.1 1.4
v -4.6 1.1 1.4
v -4.5 1.1 1.4
v -5.4 3.5 1.5
v -5.3 3.5 1.5
v -5.4 3.5 1.4
v -5.3 3.5 1.4
v -6.4 1 1.5
v -6.3 1 1.5
v -4.6 1 1.5
v -4.5 1 1.5
v -6.4 1 1.4
v -6.3 1 1.4
v -4.6 1 1.4
v -4.5 1 1.4
v -5.4 3.4 1.5
v -5.3 3.4 1.5
v -5.4 3.4 1.4
v -5.3 3.4 1.4
v -6.8 3.6 1.6
v -3.6 3.6 1.6
v -6.7 3.6 1.5
v -4.9 3.6 1.5
v -4.8 3.6 1.5
v -4.7 3.6 1.5
v -4.6 3.6 1.5
v -3.7 3.6 1.5
v -5.5 3.6 1.3
v -5.4 3.6 1.3
v -5.5 3.6 1.2
v -5.4 3.6 1.2
v -4.2 3.6 1.2
v -4.1 3.6 1.2
v -6.5 3.6 1.1
v -6.2 3.6 1.1
v -4.2 3.6 1.1
v -4.1 3.6 1.1
v -6.5 3.6 1
v -6.2 3.6 1
v -6.7 3.6 0.7
v -4.9 3.6 0.7
v -4.8 3.6 0.7
v -4.7 3.6 0.7
v -6.7 3.6 0.6
v -6 3.6 0.6
v -5.9 3.6 0.6
v -4.8 3.6 0.6
v -4.7 3.6 0.6
v -6.7 3.6 0.5
v -6 3.6 0.5
v -5.9 3.6 0.5
v -5.8 3.6 0.5
v -5.7 3.6 0.5
v -4.9 3.6 0.5
v -6.5 3.6 0.3
v -6.3 3.6 0.3
v -4.6 3.6 0.3
v -4.4 3.6 0.3
v -4.2 3.6 0.3
v -4.1 3.6 0.3
v -6.5 3.6 0.2
v -6.3 3.6 0.2
v -4.6 3.6 0.2
v -4.4 3.6 0.2
v -4.2 3.6 0.2
v -4.1 3.6 0.2
v -5.4 3.6 0.1
v -5.3 3.6 0.1
v -5.4 3.6 0
v -5.3 3.6 0
v -3.9 3.6 -0.1
v -3.8 3.6 -0.1
v -3.9 3.6 -0.2
v -3.8 3.6 -0.2
v -6.5 3.6 -0.5
v -6.4 3.6 -0.5
v -5.7 3.6 -0.5
v -4.9 3.6 -0.5
v -4.8 3.6 -0.5
v -4.7 3.6 -0.5
v -4.6 3.6 -0.5
v -3.7 3.6 -0.5
v -6.5 3.6 -0.6
v -6.4 3.6 -0.6
v -5.9 3.6 -0.6
v -5.8 3.6 -0.6
v -4.7 3.6 -0.6
v -4.6 3.6 -0.6
v -3.7 3.6 -0.6
v -5.9 3.6 -0.7
v -5.8 3.6 -0.7
v -5.7 3.6 -0.7
v -3.7 3.6 -0.7
v -4.9 3.6 -1
v -4.8 3.6 -1
v -4.9 3.6 -1.1
v -4.8 3.6 -1.1
v -4.6 3.6 -1.1
v -4.5 3.6 -1.1
v -6.6 3.6 -1.2
v -6.4 3.6 -1.2
v -4.6 3.6 -1.2
v -4.5 3.6 -1.2
v -6.5 3.6 -1.3
v -6.4 3.6 -1.3
v -6.6 3.6 -1.4
v -6.5 3.6 -1.4
v -6.7 3.6 -1.5
v -6 3.6 -1.5
v -5.9 3.6 -1.5
v -5.8 3.6 -1.5
v -5.7 3.6 -1.5
v -3.7 3.6 -1.5
v -6.8 3.6 -1.6
v -3.6 3.6 -1.6

# faces
f 3/1/1 2/1/1 1/1/1
f 4/1/1 2/1/1 3/1/1
f 5/2/1 4/2/1 3/2/1
f 6/2/1 4/2/1 5/2/1
f 9/1/1 8/1/1 7/1/1
f 10/1/1 8/1/1 9/1/1
f 13/1/1 12/1/1 11/1/1
f 14/1/1 12/1/1 13/1/1
f 17/1/1 16/1/1 15/1/1
f 18/1/1 16/1/1 17/1/1
f 19/1/2 20/1/2 21/1/2
f 21/1/2 20/1/2 22/1/2
f 23/1/2 24/1/2 25/1/2
f 25/1/2 24/1/2 26/1/2
f 27/1/2 28/1/2 29/1/2
f 29/1/2 28/1/2 30/1/2
f 31/1/2 32/1/2 33/1/2
f 33/1/2 32/1/2 34/1/2
f 33/2/2 34/2/2 35/2/2
f 35/2/2 34/2/2 36/2/2
f 40/1/3 38/1/3 37/1/3
f 41/2/3 39/2/3 38/2/3
f 41/1/3 38/1/3 40/1/3
f 42/2/3 39/2/3 41/2/3
f 45/1/3 44/1/3 43/1/3
f 46/1/3 44/1/3 45/1/3
f 49/1/3 48/1/3 47/1/3
f 50/1/3 48/1/3 49/1/3
f 53/1/3 52/1/3 51/1/3
f 54/1/3 52/1/3 53/1/3
f 55/1/4 56/1/4 57/1/4
f 57/1/4 56/1/4 58/1/4
f 59/1/4 60/1/4 61/1/4
f 61/1/4 60/1/4 62/1/4
f 63/1/4 64/1/4 65/1/4
f 65/1/4 64/1/4 66/1/4
f 67/1/4 68/1/4 70/1/4
f 68/2/4 69/2/4 71/2/4
f 70/1/4 68/1/4 71/1/4
f 71/2/4 69/2/4 72/2/4
f 75/1/5 74/1/5 73/1/5
f 76/1/5 74/1/5 75/1/5
f 81/1/5 78/1/5 77/1/5
f 82/1/5 78/1/5 81/1/5
f 83/1/5 80/1/5 79/1/5
f 84/1/5 80/1/5 83/1/5
f 87/4/5 86/4/5 85/4/5
f 88/4/5 86/4/5 87/4/5
f 89/1/6 90/1/6 93/1/6
f 93/1/6 90/1/6 94/1/6
f 91/1/6 92/1/6 95/1/6
f 95/1/6 92/1/6 96/1/6
f 97/1/6 98/1/6 99/1/6
f 99/1/6 98/1/6 100/1/6
f 101/2/6 102/2/6 103/2/6
f 103/2/6 102/2/6 104/2/6
f 104/2/6 102/2/6 105/2/6
f 105/2/6 102/2/6 106/2/6
f 106/2/6 102/2/6 107/2/6
f 107/2/6 102/2/6 108/2/6
f 103/4/6 104/4/6 109/4/6
f 109/4/6 104/4/6 110/4/6
f 103/4/6 109/4/6 111/4/6
f 109/1/6 110/1/6 111/1/6
f 110/4/6 104/4/6 112/4/6
f 111/1/6 110/1/6 112/1/6
f 107/4/6 108/4/6 113/4/6
f 113/4/6 108/4/6 114/4/6
f 103/4/6 111/4/6 115/4/6
f 111/4/6 112/4/6 115/4/6
f 115/4/6 112/4/6 116/4/6
f 113/1/6 114/1/6 117/1/6
f 107/4/6 113/4/6 117/4/6
f 114/4/6 108/4/6 118/4/6
f 117/1/6 114/1/6 118/1/6
f 115/1/6 116/1/6 119/1/6
f 103/4/6 115/4/6 119/4/6
f 116/4/6 112/4/6 120/4/6
f 119/1/6 116/1/6 120/1/6
f 101/2/6 103/2/6 121/2/6
f 103/4/6 119/4/6 121/4/6
f 119/4/6 120/4/6 121/4/6
f 120/4/6 112/4/6 122/4/6
f 121/4/6 120/4/6 122/4/6
f 104/2/6 105/2/6 122/2/6
f 112/4/6 104/4/6 122/4/6
f 105/1/6 106/1/6 123/1/6
f 122/2/6 105/2/6 123/2/6
f 106/3/6 107/3/6 124/3/6
f 123/1/6 106/1/6 124/1/6
f 101/2/6 121/2/6 125/2/6
f 121/3/6 122/3/6 125/3/6
f 123/3/6 124/3/6 125/3/6
f 122/3/6 123/3/6 125/3/6
f 125/3/6 124/3/6 126/3/6
f 126/3/6 124/3/6 127/3/6
f 127/3/6 124/3/6 128/3/6
f 124/3/6 107/3/6 129/3/6
f 128/3/6 124/3/6 129/3/6
f 101/2/6 125/2/6 130/2/6
f 125/2/6 126/2/6 130/2/6
f 126/3/6 127/3/6 131/3/6
f 130/2/6 126/2/6 131/2/6
f 127/2/6 128/2/6 132/2/6
f 131/3/6 127/3/6 132/3/6
f 132/2/6 128/2/6 133/2/6
f 133/2/6 128/2/6 134/2/6
f 134/2/6 128/2/6 135/2/6
f 130/4/6 131/4/6 136/4/6
f 136/4/6 131/4/6 137/4/6
f 107/4/6 117/4/6 138/4/6
f 117/4/6 118/4/6 138/4/6
f 129/3/6 107/3/6 138/3/6
f 138/4/6 118/4/6 139/4/6
f 139/4/6 118/4/6 140/4/6
f 118/4/6 108/4/6 141/4/6
f 140/4/6 118/4/6 141/4/6
f 136/1/6 137/1/6 142/1/6
f 130/4/6 136/4/6 142/4/6
f 137/4/6 131/4/6 143/4/6
f 142/1/6 137/1/6 143/1/6
f 129/3/6 138/3/6 144/3/6
f 138/1/6 139/1/6 144/1/6
f 139/4/6 140/4/6 145/4/6
f 144/1/6 139/1/6 145/1/6
f 140/1/6 141/1/6 146/1/6
f 145/4/6 140/4/6 146/4/6
f 141/4/6 108/4/6 147/4/6
f 146/1/6 141/1/6 147/1/6
f 134/4/6 135/4/6 148/4/6
f 148/4/6 135/4/6 149/4/6
f 134/4/6 148/4/6 150/4/6
f 148/1/6 149/1/6 150/1/6
f 149/4/6 135/4/6 151/4/6
f 150/1/6 149/1/6 151/1/6
f 145/4/6 146/4/6 152/4/6
f 144/4/6 145/4/6 152/4/6
f 147/4/6 108/4/6 152/4/6
f 146/4/6 147/4/6 152/4/6
f 152/4/6 108/4/6 153/4/6
f 144/4/6 152/4/6 154/4/6
f 152/1/6 153/1/6 154/1/6
f 153/4/6 108/4/6 155/4/6
f 154/1/6 153/1/6 155/1/6
f 130/4/6 142/4/6 156/4/6
f 142/4/6 143/4/6 156/4/6
f 156/4/6 143/4/6 157/4/6
f 150/4/6 151/4/6 158/4/6
f 133/2/6 134/2/6 158/2/6
f 134/4/6 150/4/6 158/4/6
f 135/2/6 128/2/6 159/2/6
f 158/4/6 151/4/6 159/4/6
f 151/4/6 135/4/6 159/4/6
f 128/1/6 129/1/6 160/1/6
f 159/2/6 128/2/6 160/2/6
f 129/3/6 144/3/6 161/3/6
f 160/1/6 129/1/6 161/1/6
f 144/4/6 154/4/6 162/4/6
f 161/3/6 144/3/6 162/3/6
f 154/4/6 155/4/6 162/4/6
f 108/2/6 102/2/6 163/2/6
f 162/4/6 155/4/6 163/4/6
f 155/4/6 108/4/6 163/4/6
f 156/1/6 157/1/6 164/1/6
f 130/4/6 156/4/6 164/4/6
f 157/4/6 143/4/6 165/4/6
f 164/1/6 157/1/6 165/1/6
f 131/3/6 132/3/6 166/3/6
f 132/1/6 133/1/6 166/1/6
f 133/2/6 158/2/6 167/2/6
f 166/1/6 133/1/6 167/1/6
f 159/2/6 160/2/6 167/2/6
f 160/2/6 161/2/6 167/2/6
f 158/2/6 159/2/6 167/2/6
f 161/3/6 162/3/6 168/3/6
f 167/2/6 161/2/6 168/2/6
f 162/2/6 163/2/6 169/2/6
f 168/3/6 162/3/6 169/3/6
f 163/2/6 102/2/6 170/2/6
f 169/2/6 163/2/6 170/2/6
f 131/3/6 166/3/6 171/3/6
f 166/3/6 167/3/6 171/3/6
f 169/3/6 170/3/6 171/3/6
f 167/3/6 168/3/6 171/3/6
f 168/3/6 169/3/6 171/3/6
f 171/3/6 170/3/6 172/3/6
f 172/3/6 170/3/6 173/3/6
f 170/2/6 102/2/6 174/2/6
f 173/3/6 170/3/6 174/3/6
f 173/4/6 174/4/6 175/4/6
f 175/4/6 174/4/6 176/4/6
f 173/4/6 175/4/6 177/4/6
f 175/1/6 176/1/6 177/1/6
f 176/4/6 174/4/6 178/4/6
f 177/1/6 176/1/6 178/1/6
f 178/4/6 174/4/6 179/4/6
f 179/4/6 174/4/6 180/4/6
f 164/4/6 165/4/6 181/4/6
f 130/4/6 164/4/6 181/4/6
f 165/4/6 143/4/6 182/4/6
f 181/4/6 165/4/6 182/4/6
f 179/1/6 180/1/6 183/1/6
f 177/4/6 178/4/6 183/4/6
f 178/4/6 179/4/6 183/4/6
f 180/4/6 174/4/6 184/4/6
f 183/1/6 180/1/6 184/1/6
f 181/1/6 182/1/6 185/1/6
f 182/4/6 143/4/6 186/4/6
f 185/1/6 182/1/6 186/1/6
f 130/4/6 181/4/6 187/4/6
f 181/1/6 185/1/6 187/1/6
f 185/4/6 186/4/6 188/4/6
f 187/1/6 185/1/6 188/1/6
f 101/2/6 130/2/6 189/2/6
f 130/4/6 187/4/6 189/4/6
f 187/4/6 188/4/6 189/4/6
f 186/4/6 143/4/6 190/4/6
f 189/4/6 188/4/6 190/4/6
f 188/4/6 186/4/6 190/4/6
f 143/4/6 131/4/6 190/4/6
f 131/3/6 171/3/6 190/3/6
f 171/1/6 172/1/6 191/1/6
f 190/3/6 171/3/6 191/3/6
f 172/2/6 173/2/6 192/2/6
f 191/1/6 172/1/6 192/1/6
f 173/4/6 177/4/6 193/4/6
f 192/2/6 173/2/6 193/2/6
f 177/4/6 183/4/6 193/4/6
f 183/4/6 184/4/6 193/4/6
f 184/4/6 174/4/6 194/4/6
f 193/4/6 184/4/6 194/4/6
f 174/2/6 102/2/6 194/2/6
f 190/2/6 191/2/6 195/2/6
f 101/2/6 189/2/6 195/2/6
f 193/2/6 194/2/6 195/2/6
f 189/2/6 190/2/6 195/2/6
f 191/2/6 192/2/6 195/2/6
f 192/2/6 193/2/6 195/2/6
f 194/2/6 102/2/6 196/2/6
f 195/2/6 194/2/6 196/2/6
